{"title":"Wrong Turn 4, Bloody Beginnings 2011 DVDrip English Klam","uid":6802633,"size":1550374805,"categoryP":"video","categoryS":"movies","magnet":"?xt=urn:btih:b36211241a3911c1e58d38f740cd132631f7b8d8&amp;dn=Wrong+Turn+4%2C+Bloody+Beginnings+2011+DVDrip+English+Klam&amp;tr=udp%3A%2F%2Ftracker.openbittorrent.com%3A80&amp;tr=udp%3A%2F%2Fopen.demonii.com%3A1337&amp;tr=udp%3A%2F%2Ftracker.coppersurfer.tk%3A6969&amp;tr=udp%3A%2F%2Fexodus.desync.com%3A6969","seeders":1,"leechers":0,"uploader":"Klambake","files":-1,"time":1320748749,"description":"With: Terra Vnesa, Dean Armstrong and Tenika Davis\n\nEen groep vrienden besluit tijdens hun wintervakantie met een sneeuwscooter rond te trekken. Ze nemen een verkeerde afslag en komen terecht in een storm. Ze zoeken hun toevlucht in een verlaten sanatorium. Door de storm kunnen de vrienden niet naar buiten en ze zijn blij dat ze ergens kunnen verblijven. Maar wat ze niet weten is dat het sanatorium een vreselijk verleden heeft en dat een aantal voormalige patiÃƒÂ«nten er nog steeds woont. Een dodelijk kat-en-muisspel begint.\n\nFollows a group of friends that decide to go snowmobiling during their winter break. They make a &quot;wrong turn&quot;, getting lost in a storm. \n\n------------------ Dutch Friends ------------------\nYou can find my Friends at: http://www.Film-Test.nl \n------ They got my dutch subs ----- and more ------\n\nGeneral:\n\nComplete name                    : Wrong Turn 4\\Bloody Beginnings.avi\nFormat                           : AVI\nFormat/Info                      : Audio Video Interleave\nFile size                        : 1.44 GiB\nDuration                         : 1h 33mn\nOverall bit rate                 : 2 214 Kbps\n\nVideo:\n\nFormat                           : MPEG-4 Visual\nFormat profile                   : Simple@L3\nFormat settings, BVOP            : No\nFormat settings, QPel            : No\nFormat settings, GMC             : No warppoints\nFormat settings, Matrix          : Default (H.263)\nCodec ID                         : XVID\nCodec ID/Hint                    : XviD\nDuration                         : 1h 33mn\nBit rate                         : 1 755 Kbps\nWidth                            : 704 pixels\nHeight                           : 396 pixels\nDisplay aspect ratio             : 16:9\nFrame rate                       : 23.976 fps\nColor space                      : YUV\nChroma subsampling               : 4:2:0\nBit depth                        : 8 bits\nScan type                        : Progressive\nCompression mode                 : Lossy\nBits/(Pixel*Frame)               : 0.263\nStream size                      : 1.14 GiB (79%)\nWriting library                  : XviD 1.1.2 (UTC 2006-11-01)\n\nAudio:\n\nFormat                           : AC-3\nFormat/Info                      : Audio Coding 3\nMode extension                   : CM (complete main)\nCodec ID                         : 2000\nDuration                         : 1h 33mn\nBit rate mode                    : Constant\nBit rate                         : 448 Kbps\nChannel(s)                       : 6 channels\nChannel positions                : Front: L C R, Side: L R, LFE\nSampling rate                    : 48.0 KHz\nBit depth                        : 16 bits\nCompression mode                 : Lossy\nStream size                      : 299 MiB (20%)\nAlignment                        : Aligned on interleaves\nInterleave, duration             : 32 ms (0.77 video frame)\nInterleave, preload duration     : 64 ms\n\n","torrent":{"xt":"urn:btih:b36211241a3911c1e58d38f740cd132631f7b8d8","amp;dn":"Wrong+Turn+4%2C+Bloody+Beginnings+2011+DVDrip+English+Klam","amp;tr":["udp%3A%2F%2Ftracker.openbittorrent.com%3A80","udp%3A%2F%2Fopen.demonii.com%3A1337","udp%3A%2F%2Ftracker.coppersurfer.tk%3A6969","udp%3A%2F%2Fexodus.desync.com%3A6969"],"infoHash":"b36211241a3911c1e58d38f740cd132631f7b8d8","infoHashBuffer":{"type":"Buffer","data":[179,98,17,36,26,57,17,193,229,141,56,247,64,205,19,38,49,247,184,216]},"announce":[],"urlList":[]}}